<svg xmlns="http://www.w3.org/2000/svg" viewBox="0 0 512 512" width="512" height="512">
  <rect width="512" height="512" fill="#F5EFE6" rx="96"/>
  <circle cx="256" cy="200" r="92" fill="#f0c977" opacity="0.65"/>
  <g transform="translate(256 200)">
    <g>
      <ellipse cx="0" cy="-86" rx="16" ry="42" fill="#d9a857" stroke="#5a3f1d" stroke-width="2"/>
      <g transform="rotate(30)"><ellipse cx="0" cy="-86" rx="16" ry="42" fill="#d9a857" stroke="#5a3f1d" stroke-width="2"/></g>
      <g transform="rotate(60)"><ellipse cx="0" cy="-86" rx="16" ry="42" fill="#d9a857" stroke="#5a3f1d" stroke-width="2"/></g>
      <g transform="rotate(90)"><ellipse cx="0" cy="-86" rx="16" ry="42" fill="#d9a857" stroke="#5a3f1d" stroke-width="2"/></g>
      <g transform="rotate(120)"><ellipse cx="0" cy="-86" rx="16" ry="42" fill="#d9a857" stroke="#5a3f1d" stroke-width="2"/></g>
      <g transform="rotate(150)"><ellipse cx="0" cy="-86" rx="16" ry="42" fill="#d9a857" stroke="#5a3f1d" stroke-width="2"/></g>
      <g transform="rotate(180)"><ellipse cx="0" cy="-86" rx="16" ry="42" fill="#d9a857" stroke="#5a3f1d" stroke-width="2"/></g>
      <g transform="rotate(210)"><ellipse cx="0" cy="-86" rx="16" ry="42" fill="#d9a857" stroke="#5a3f1d" stroke-width="2"/></g>
      <g transform="rotate(240)"><ellipse cx="0" cy="-86" rx="16" ry="42" fill="#d9a857" stroke="#5a3f1d" stroke-width="2"/></g>
      <g transform="rotate(270)"><ellipse cx="0" cy="-86" rx="16" ry="42" fill="#d9a857" stroke="#5a3f1d" stroke-width="2"/></g>
      <g transform="rotate(300)"><ellipse cx="0" cy="-86" rx="16" ry="42" fill="#d9a857" stroke="#5a3f1d" stroke-width="2"/></g>
      <g transform="rotate(330)"><ellipse cx="0" cy="-86" rx="16" ry="42" fill="#d9a857" stroke="#5a3f1d" stroke-width="2"/></g>
    </g>
  </g>
  <circle cx="256" cy="200" r="38" fill="#5e3b1f" stroke="#2b1a0a" stroke-width="3"/>
  <path d="M256 290 Q 262 380 256 450" stroke="#5c6d52" stroke-width="8" fill="none" stroke-linecap="round"/>
  <path d="M148 400 L364 400 L344 488 L168 488 Z" fill="#d9a991" stroke="#7a4a3a" stroke-width="5" stroke-linejoin="round"/>
</svg>
