<svg xmlns="http://www.w3.org/2000/svg" viewBox="0 0 192 192" width="192" height="192">
  <rect width="192" height="192" fill="#F5EFE6" rx="32"/>
  <circle cx="96" cy="74" r="34" fill="#f0c977" opacity="0.65"/>
  <g transform="rotate(0 96 74)">
    <g transform="translate(96 74)">
      <g>
        <ellipse cx="0" cy="-32" rx="6" ry="16" fill="#d9a857" stroke="#5a3f1d" stroke-width="0.9"/>
        <g transform="rotate(30)"><ellipse cx="0" cy="-32" rx="6" ry="16" fill="#d9a857" stroke="#5a3f1d" stroke-width="0.9"/></g>
        <g transform="rotate(60)"><ellipse cx="0" cy="-32" rx="6" ry="16" fill="#d9a857" stroke="#5a3f1d" stroke-width="0.9"/></g>
        <g transform="rotate(90)"><ellipse cx="0" cy="-32" rx="6" ry="16" fill="#d9a857" stroke="#5a3f1d" stroke-width="0.9"/></g>
        <g transform="rotate(120)"><ellipse cx="0" cy="-32" rx="6" ry="16" fill="#d9a857" stroke="#5a3f1d" stroke-width="0.9"/></g>
        <g transform="rotate(150)"><ellipse cx="0" cy="-32" rx="6" ry="16" fill="#d9a857" stroke="#5a3f1d" stroke-width="0.9"/></g>
        <g transform="rotate(180)"><ellipse cx="0" cy="-32" rx="6" ry="16" fill="#d9a857" stroke="#5a3f1d" stroke-width="0.9"/></g>
        <g transform="rotate(210)"><ellipse cx="0" cy="-32" rx="6" ry="16" fill="#d9a857" stroke="#5a3f1d" stroke-width="0.9"/></g>
        <g transform="rotate(240)"><ellipse cx="0" cy="-32" rx="6" ry="16" fill="#d9a857" stroke="#5a3f1d" stroke-width="0.9"/></g>
        <g transform="rotate(270)"><ellipse cx="0" cy="-32" rx="6" ry="16" fill="#d9a857" stroke="#5a3f1d" stroke-width="0.9"/></g>
        <g transform="rotate(300)"><ellipse cx="0" cy="-32" rx="6" ry="16" fill="#d9a857" stroke="#5a3f1d" stroke-width="0.9"/></g>
        <g transform="rotate(330)"><ellipse cx="0" cy="-32" rx="6" ry="16" fill="#d9a857" stroke="#5a3f1d" stroke-width="0.9"/></g>
      </g>
    </g>
  </g>
  <circle cx="96" cy="74" r="14" fill="#5e3b1f" stroke="#2b1a0a" stroke-width="1.2"/>
  <path d="M96 108 Q 98 140 96 168" stroke="#5c6d52" stroke-width="3" fill="none" stroke-linecap="round"/>
  <path d="M56 150 L136 150 L128 184 L64 184 Z" fill="#d9a991" stroke="#7a4a3a" stroke-width="2" stroke-linejoin="round"/>
</svg>
